<?xml version="1.0" encoding="UTF-8" standalone="no"?>
<!-- Created with Inkscape (http://www.inkscape.org/) -->

<svg
   width="65.794388mm"
   height="58.973526mm"
   viewBox="0 0 65.794387 58.973526"
   version="1.1"
   id="svg5"
   inkscape:version="1.1.2 (0a00cf5339, 2022-02-04)"
   sodipodi:docname="logo.svg"
   xmlns:inkscape="http://www.inkscape.org/namespaces/inkscape"
   xmlns:sodipodi="http://sodipodi.sourceforge.net/DTD/sodipodi-0.dtd"
   xmlns="http://www.w3.org/2000/svg"
   xmlns:svg="http://www.w3.org/2000/svg">
  <sodipodi:namedview
     id="namedview7"
     pagecolor="#ffffff"
     bordercolor="#666666"
     borderopacity="1.0"
     inkscape:pageshadow="2"
     inkscape:pageopacity="0.0"
     inkscape:pagecheckerboard="0"
     inkscape:document-units="mm"
     showgrid="false"
     inkscape:zoom="2.1997091"
     inkscape:cx="78.419459"
     inkscape:cy="210.70968"
     inkscape:window-width="2560"
     inkscape:window-height="1376"
     inkscape:window-x="0"
     inkscape:window-y="27"
     inkscape:window-maximized="1"
     inkscape:current-layer="layer1"
     fit-margin-top="0"
     fit-margin-left="0"
     fit-margin-right="0"
     fit-margin-bottom="0" />
  <defs
     id="defs2" />
  <g
     inkscape:label="Layer 1"
     inkscape:groupmode="layer"
     id="layer1"
     style="display:inline;opacity:1"
     transform="translate(-12.745039,-5.4472915)">
    <path
       id="path661"
       style="fill:#000000;stroke-width:0.427147"
       d="M 133.625,0.0078125 C 110.10319,-0.3505899 87.267308,12.211667 73.353516,33.845703 66.431972,44.607719 62.367563,58.667432 62.355469,71.894531 c -0.0046,5.123944 0.730411,12.219136 1.677734,16.195313 0.420367,1.764321 0.663333,3.207031 0.539063,3.207031 -0.124264,0 -2.460271,-1.038193 -5.191407,-2.306641 -5.118247,-2.377133 -12.806533,-5.282947 -19.339843,-7.310546 -4.099178,-1.272038 -5.66759,-1.188661 -6.308594,0.33789 -0.219239,0.522104 -0.643933,5.467374 -0.945313,10.988281 l -0.548828,10.037111 -6.193359,0.21484 c -6.96813,0.24027 -7.913368,0.57315 -8.5,2.99024 -0.199571,0.82227 -0.58869,4.56919 -0.865234,8.32812 -0.276533,3.75889 -0.875757,11.06396 -1.330079,16.23242 -0.454329,5.16851 -1.019487,11.60692 -1.255859,14.3086 -0.401639,4.59099 -0.866162,9.52506 -2.974609,31.60937 -0.459803,4.8161 -1.1395113,12.50477 -1.5117191,17.08594 -0.3722306,4.58117 -0.8711514,10.19923 -1.109375,12.48438 -0.4869506,4.67141 -0.2716941,5.47556 1.6875001,6.2871 1.155575,0.47864 1.745645,0.31155 7.171875,-2.04687 8.329648,-3.62033 11.860348,-4.9341 18.484375,-6.875 17.185663,-5.03554 29.905985,-7.00637 45.304687,-7.02149 14.485138,-0.0128 20.120096,1.05368 28.619136,5.41797 7.34884,3.77364 13.39821,8.58612 17.28321,13.74805 1.31697,1.74985 2.72341,3.37234 3.12695,3.60742 1.00495,0.58598 3.52628,0.53382 4.6543,-0.0957 0.5113,-0.28532 1.87373,-1.76784 3.0293,-3.29492 5.52631,-7.30296 15.38225,-13.9267 25.9414,-17.4375 7.65256,-2.54442 24.82125,-2.74349 40.57813,-0.47071 14.68041,2.11752 32.85881,7.37587 45.1582,13.0625 2.28363,1.05585 4.57201,1.85722 5.08398,1.78125 0.51198,-0.076 1.3033,-0.64014 1.75977,-1.2539 0.82483,-1.1091 0.82268,-1.20272 -0.48438,-15.16406 -2.17601,-23.24308 -5.91853,-64.60286 -6.875,-75.98438 -1.2541,-14.92316 -1.22394,-14.73957 -2.60351,-16.11914 -1.17679,-1.17672 -1.19767,-1.17969 -7.18555,-1.17969 -5.88614,0 -6.00714,-0.0189 -6.19336,-0.96093 -0.10449,-0.52857 -0.40697,-5.095491 -0.67187,-10.146489 -0.55123,-10.509846 -0.82859,-11.389587 -3.53516,-11.230469 -2.91666,0.171666 -20.04555,6.325863 -26.04101,9.357422 -1.10812,0.560315 -2.10571,1.019531 -2.21875,1.019531 -0.11305,0 -0.0339,-0.527756 0.17578,-1.173828 0.20968,-0.646073 0.72451,-2.809727 1.14453,-4.806641 1.09913,-5.226104 1.10228,-20.824696 0.006,-26.216797 C 199.7727,48.644798 195.33453,38.074296 189.76967,30.214844 188.18942,27.982995 184.485,23.755014 181.5392,20.818359 170.73683,10.049732 158.30013,3.5182292 143.72461,0.96289062 140.36041,0.37308594 136.98526,0.05901284 133.625,0.0078125 Z m -6.81641,15.2539065 c 0.32798,0 0.47071,2.59849 0.47071,8.542969 v 8.542968 l -1.60157,-0.06445 c -5.60854,-0.224806 -11.21289,-0.930824 -11.21289,-1.412109 0,-0.290495 1.37993,-2.623821 3.06641,-5.185547 2.90428,-4.41154 8.25567,-10.423828 9.27734,-10.423828 z m 11.625,0 c 0.26146,0 1.86093,1.394411 3.55469,3.097656 3.1043,3.121701 5.39414,6.208974 7.87891,10.623047 l 1.34961,2.398437 -3.53125,0.277344 c -1.94324,0.151635 -4.92761,0.391471 -6.63086,0.533203 l -3.09766,0.257813 v -8.59375 c 0,-6.025172 0.14325,-8.59375 0.47656,-8.59375 z m -26.49023,0.876953 -0.89453,1.257812 c -0.49228,0.691352 -1.09274,1.378431 -1.33399,1.527344 -0.70452,0.435402 -4.26807,6.17492 -5.35156,8.619141 -0.54675,1.233373 -1.23658,2.228008 -1.5332,2.21289 -0.86318,-0.04509 -8.444653,-1.967979 -8.677736,-2.201171 -0.272852,-0.272882 2.638355,-2.645483 6.392576,-5.208985 2.77644,-1.895811 6.04626,-3.720399 9.77539,-5.453125 z m 42.16406,0.287109 c 0.18087,-0.08572 1.19613,0.442748 3.7168,1.794922 5.0855,2.728063 9.73133,5.858823 11.68359,7.873047 l 1.41797,1.462891 -1.42578,0.449218 c -0.78506,0.24703 -2.197,0.632918 -3.13672,0.857422 -4.35892,1.041751 -3.92726,1.152861 -5.16797,-1.314453 -1.12927,-2.24572 -4.80129,-7.955542 -6.65625,-10.349609 -0.3479,-0.449008 -0.54016,-0.722006 -0.43164,-0.773438 z m -67.849608,20.19336 c 0.160517,0 1.623065,0.449587 3.25,1 1.626932,0.550412 4.400124,1.347471 6.16211,1.769531 1.761985,0.422022 3.243721,0.798015 3.292969,0.832031 0.04924,0.0361 -0.281572,1.261529 -0.736329,2.722656 -1.202698,3.864303 -2.450695,10.42033 -2.798828,14.712891 L 95.125,61.394531 h -9.941406 -9.941406 l 0.621093,-2.658203 c 1.097023,-4.702488 3.145008,-10.276475 5.125,-13.947266 2.200449,-4.079504 4.838125,-8.169921 5.269531,-8.169921 z m 93.359378,0.09961 c 1.32903,1.51714 5.3789,8.60179 6.63476,11.607422 1.57477,3.768869 3.81384,11.198714 3.81641,12.662109 6.6e-4,0.408303 -0.36609,0.655743 -0.95898,0.640625 -0.5286,-0.01172 -4.94682,-0.07323 -9.81836,-0.136718 -8.78012,-0.114445 -8.86002,-0.124234 -9.04102,-1.06836 -0.10044,-0.523842 -0.50922,-3.328976 -0.9082,-6.234375 -0.39899,-2.905361 -1.24333,-7.263928 -1.87696,-9.685547 l -1.15234,-4.402344 1.50781,-0.283203 c 0.82962,-0.155641 3.802,-0.9436 6.60352,-1.75 2.80152,-0.806324 5.13791,-1.412727 5.19336,-1.349609 z m -69.12696,5.027344 c 0.32463,0 2.36158,0.180485 4.52539,0.402344 2.16386,0.221854 5.80904,0.529325 8.09961,0.68164 l 4.16407,0.275391 V 52.25 61.394531 h -10.67969 -10.67773 v -1.02539 c 0,-4.461204 3.4738,-18.623047 4.56835,-18.623046 z m 44.32618,0.09961 c 0.2945,-0.0083 0.46566,-0.005 0.48242,0.01172 0.067,0.06705 0.71114,2.162744 1.43164,4.65625 1.19868,4.148372 2.57598,11.573969 2.58203,13.919922 l 0.002,0.960937 h -10.67773 -10.67969 v -9.148437 -9.146485 l 3.09766,-0.232421 c 1.70325,-0.1279 5.57749,-0.43446 8.60937,-0.681641 2.27391,-0.185386 4.26884,-0.315023 5.15235,-0.339844 z M 74.613281,72.5 h 10.101563 c 7.795124,0 10.102234,0.121121 10.103515,0.533203 0.01159,3.562734 1.112307,13.592691 1.931641,17.589844 0.574435,2.80252 0.999183,5.129544 0.943359,5.171875 -0.05583,0.04248 -2.311967,0.778261 -5.013671,1.632812 -2.701713,0.854589 -6.023336,2.100086 -7.382813,2.769536 l -2.472656,1.21679 -1.455078,-2.603513 C 77.866936,92.544052 75.436435,84.210905 74.904297,76.640625 Z m 31.177739,0 h 10.74414 10.74414 v 9.544922 9.542969 l -5.66016,0.279297 c -3.11284,0.153331 -6.90849,0.473205 -8.43555,0.710937 -1.52705,0.237657 -3.19637,0.526925 -3.70898,0.642578 -1.0921,0.246652 -1.05434,0.343905 -2.28516,-5.771484 -0.49648,-2.466785 -1.01402,-6.838914 -1.15039,-9.716797 z m 32.16601,0 h 10.89258 c 9.02931,0 10.89258,0.102059 10.89258,0.595703 0,2.016983 -1.00089,10.140617 -1.72852,14.029297 -1.25976,6.732624 -0.81603,6.244587 -5.10547,5.605469 -1.99691,-0.297562 -6.17817,-0.675057 -9.29101,-0.839844 l -5.66016,-0.298828 v -9.546875 z m 32.25,0 h 10.14453 10.14453 v 2.669922 c -0.002,3.856705 -1.12301,10.189723 -2.5625,14.486328 -0.68647,2.048957 -2.16817,5.550358 -3.29297,7.779297 -2.03845,4.039563 -2.04885,4.049393 -3.11328,3.451173 -1.84742,-1.038317 -9.51113,-3.917004 -11.90039,-4.470704 -2.60007,-0.602495 -2.49343,-0.03117 -1.17187,-6.189454 0.83716,-3.901035 1.46938,-9.326952 1.62695,-13.988281 z M 44.111328,94.710938 c 1.180048,0 10.685497,4.048476 17.714844,7.544922 l 7.375,3.66797 2.335937,3.96875 c 7.79195,13.23968 18.738008,23.3499 32.382811,29.90625 9.56188,4.59454 18.89839,6.71887 29.55274,6.72265 6.64154,0.002 11.02071,-0.66114 18.14453,-2.74804 18.564,-5.43821 33.82051,-18.24115 44.03711,-36.95703 0.50511,-0.92531 2.09288,-1.93928 6.40625,-4.08594 5.73723,-2.855287 15.84608,-7.205519 17.96875,-7.732423 l 1.12695,-0.279297 0.2793,5.86914 c 0.29265,6.14804 1.29751,38.78211 1.79492,58.27344 l 0.29101,11.39453 -1.45507,0.21289 c -35.68782,5.21382 -69.58609,17.45878 -83.36133,30.11328 l -1.17383,1.07813 -0.0664,-17.27149 c -0.0366,-9.49992 -0.0294,-17.7525 0.0176,-18.33984 0.178,-2.22561 2.36712,-5.79975 5.46289,-8.91797 1.72023,-1.73265 3.12891,-3.49628 3.12891,-3.91992 0,-1.02225 -1.13472,-2.11328 -2.19727,-2.11328 -2.18996,0 -7.72437,5.28816 -10.02734,9.58007 l -1.33399,2.48243 -1.00781,-2.01954 c -1.21548,-2.43374 -5.34361,-7.03165 -7.88086,-8.77734 -1.91642,-1.31852 -3.92489,-1.6337 -4.80468,-0.7539 -0.57752,0.5775 -0.70428,2.90624 -0.15821,2.90624 0.86686,0 5.60572,4.86224 7.13867,7.32422 l 1.68946,2.71289 0.12304,13.45508 c 0.11147,12.26272 -0.016,24.39677 -0.24414,23.23633 -0.11666,-0.59354 -8.45161,-6.79389 -11.83789,-8.80664 -15.44304,-9.17915 -42.218121,-17.54305 -68.933591,-21.53125 l -4.861328,-0.72461 0.294922,-12 c 0.161987,-6.59951 0.569343,-21.89715 0.90625,-33.99609 0.336919,-12.09899 0.613526,-23.68068 0.615235,-25.736331 0.0021,-2.770734 0.147079,-3.738281 0.55664,-3.738281 z m 93.845702,7.572262 4.5918,0.29883 c 4.9389,0.32198 10.8749,1.04912 11.19922,1.37109 0.29086,0.28895 -1.11065,4.11964 -2.97852,8.13868 -2.1346,4.59299 -4.29574,7.80374 -7.65234,11.36523 -1.50904,1.60116 -3.2871,3.29668 -3.95117,3.76953 l -1.20899,0.86133 v -12.90234 z m -11.44726,0.16797 c 0.34147,-0.002 0.54458,0.009 0.57226,0.0371 0.11524,0.11524 0.15994,5.9576 0.0977,12.98242 l -0.11328,12.77149 -3.45703,-3.41602 c -5.20979,-5.15108 -8.69378,-10.73624 -11.4961,-18.42773 l -0.95508,-2.62305 1.54492,-0.25 c 2.30327,-0.37377 11.41629,-1.05775 13.80665,-1.07422 z m 38.47656,3.95508 c 0.16896,-0.002 0.3782,0.0371 0.64648,0.0996 1.82658,0.42516 9.8771,3.60442 10.11914,3.99609 0.30396,0.4918 -4.00353,4.68588 -8.1914,7.97657 -1.92587,1.51324 -5.71667,3.8972 -8.42383,5.29687 -2.70716,1.39971 -5.02099,2.54492 -5.14258,2.54492 -0.12159,0 0.85668,-1.39441 2.17383,-3.09765 2.46393,-3.18622 6.98328,-11.94012 7.83008,-15.16602 0.33212,-1.26522 0.4814,-1.64503 0.98828,-1.65039 z m -64.91602,0.12695 c 0.37638,-0.008 0.48195,0.15724 0.59766,0.49024 2.17528,6.26033 5.11285,11.83844 8.69922,16.51758 1.17163,1.52863 2.07699,2.77526 2.01172,2.77148 -0.74838,-0.0489 -11.25449,-6.0023 -13.263676,-7.51562 -2.745683,-2.06812 -8.851562,-7.82092 -8.851562,-8.33985 0,-0.33819 4.825525,-2.23329 8.589844,-3.37305 1.193076,-0.3613 1.840431,-0.54264 2.216794,-0.55078 z m 133.04883,9.11914 2.07422,1.13672 c 1.14145,0.62476 2.11155,1.15311 2.1543,1.17578 0.0428,0.0226 0.48232,5.03601 0.97656,11.14063 2.01717,24.91517 3.49128,42.49997 4.52539,53.94922 0.60078,6.65166 1.03407,12.45079 0.96094,12.88672 -0.12586,0.75023 -0.27058,0.73548 -2.6875,-0.25196 -10.00349,-4.08699 -25.81813,-7.547 -39.77344,-8.70312 -2.79745,-0.23188 -5.37416,-0.45023 -5.72656,-0.48047 -0.83131,-0.0748 2.50604,-0.76347 13.02734,-2.69141 13.63494,-2.49853 15.10061,-2.74612 20.4043,-3.42968 2.765,-0.35638 5.43477,-0.86479 5.93164,-1.13086 0.99822,-0.53424 0.99669,-0.97968 -0.0742,-22.39063 -0.22326,-4.4637 -0.59964,-13.49614 -0.83594,-20.07422 -0.23628,-6.57808 -0.54819,-14.02558 -0.69336,-16.54883 z m -201.265624,0.10547 c 0.06928,0.0693 -0.04837,4.15752 -0.261719,9.08399 -1.379157,31.84391 -2.131726,52.91377 -1.914063,53.59961 0.292113,0.92035 1.679346,1.25116 10.890625,2.59179 5.390351,0.78456 20.270314,3.39954 27.337891,4.80469 l 2.347656,0.4668 -3.628906,0.33789 c -10.482342,0.97636 -22.136111,2.92415 -29.900391,4.99609 -4.166974,1.11198 -12.282478,3.80701 -13.755859,4.56836 -1.744936,0.90161 -1.9595,0.75229 -1.773438,-1.2207 2.28028,-24.18191 6.558594,-73.96077 6.558594,-76.3125 0,-0.53348 0.695658,-1.21028 1.986328,-1.93164 1.092919,-0.61093 2.044003,-1.05354 2.113282,-0.98438 z m 7.447265,93.94531 c -26.200521,-139.80208 -13.10026,-69.90104 0,0 z"
       transform="matrix(0.26458333,0,0,0.26458333,10.555102,5.4472)"
       sodipodi:nodetypes="sccssscscccssscsssssscsscssssssssssssscssscsscssssccssssscccccsscccscccccssccccsssssccscccccsscsccssscccccssccccccssscscccccccsscscscccccccccccccccscccssssccccccccscccsccsccccscsscccccccccsssscccssscccsccccscscccssccccssccccccsscsssssssscsccscsccsssssccsscssccccsscccsccscccc" />
    <path
       d="m 60.504172,60.408784 c -1.732957,0.01005 -3.411773,0.09826 -4.471562,0.261482 -2.649251,0.408011 -4.574944,1.014098 -6.159314,1.939417 -1.036053,0.605089 -1.469676,0.985295 -1.469676,1.287777 0,0.511088 0.816824,0.407294 1.023191,0.348298 1.447702,-0.543313 -0.02183,-0.01607 2.967134,-1.087842 0.248635,-0.114639 0.881067,-0.297244 1.378338,-0.425244 4.218255,-1.08585 9.02789,-1.053939 16.479615,0.110072 2.456341,0.383699 3.662606,0.43189 3.770829,0.14986 0.130907,-0.341138 -0.11637,-0.762553 -0.530718,-0.904854 -1.044397,-0.358658 -5.443235,-1.148688 -8.192264,-1.471226 -1.275707,-0.149691 -3.062613,-0.217784 -4.795573,-0.20774 z"
       style="fill:#000000;stroke-width:0.113016"
       id="path1058"
       sodipodi:nodetypes="sssscccsscss" />
    <path
       d="m 30.114153,60.533363 c 1.732957,0.01005 3.411773,0.09826 4.471562,0.261482 2.649251,0.408011 4.574944,1.014098 6.159314,1.939417 1.036053,0.605089 1.469676,0.985295 1.469676,1.287777 0,0.511088 -0.816824,0.407294 -1.023191,0.348298 -1.447702,-0.543313 0.02183,-0.01607 -2.967134,-1.087842 -0.248635,-0.114639 -0.881067,-0.297244 -1.378338,-0.425244 -4.218255,-1.08585 -9.02789,-1.053939 -16.479615,0.110072 -2.456341,0.383699 -3.662606,0.43189 -3.770829,0.14986 -0.130907,-0.341138 0.11637,-0.762553 0.530718,-0.904854 1.044397,-0.358658 5.443235,-1.148688 8.192264,-1.471226 1.275707,-0.149691 3.062613,-0.217784 4.795573,-0.20774 z"
       style="display:inline;fill:#000000;stroke-width:0.113016"
       id="path1058-6"
       sodipodi:nodetypes="sssscccsscss" />
  </g>
</svg>
